<?xml version="1.0" encoding="iso-8859-1"?>
<!-- Generator: Adobe Illustrator 17.0.1, SVG Export Plug-In . SVG Version: 6.00 Build 0)  -->
<!DOCTYPE svg PUBLIC "-//W3C//DTD SVG 1.1//EN" "http://www.w3.org/Graphics/SVG/1.1/DTD/svg11.dtd">
<svg version="1.1" id="Layer_1" xmlns="http://www.w3.org/2000/svg" xmlns:xlink="http://www.w3.org/1999/xlink" x="0px" y="0px"
	 viewBox="0 0 16 16" style="enable-background:new 0 0 16 16;" xml:space="preserve">
<g>
	<path id="Blue_1_" style="fill:#5FA8DC;" d="M15.117,16C15.604,16,16,15.605,16,15.117V0.883C16,0.395,15.605,0,15.117,0H0.883
		C0.395,0,0,0.395,0,0.883v14.234C0,15.605,0.395,16,0.883,16H15.117z"/>
	<path style="fill:#FFFFFF;" d="M12.975,4.914c-0.366,0.162-0.759,0.272-1.172,0.321c0.421-0.253,0.745-0.653,0.898-1.129
		c-0.394,0.234-0.831,0.404-1.296,0.495c-0.372-0.397-0.903-0.645-1.49-0.645c-1.127,0-2.041,0.914-2.041,2.041
		c0,0.16,0.018,0.316,0.053,0.465C6.229,6.378,4.725,5.566,3.718,4.331C3.542,4.632,3.441,4.983,3.441,5.357
		c0,0.708,0.36,1.333,0.908,1.699C4.015,7.045,3.7,6.954,3.425,6.801c0,0.009,0,0.017,0,0.026c0,0.989,0.704,1.814,1.637,2.002
		C4.891,8.875,4.711,8.9,4.524,8.9c-0.132,0-0.259-0.013-0.384-0.037c0.26,0.811,1.014,1.401,1.907,1.418
		c-0.699,0.547-1.579,0.874-2.535,0.874c-0.165,0-0.327-0.01-0.487-0.029c0.903,0.579,1.976,0.917,3.129,0.917
		c3.755,0,5.808-3.11,5.808-5.808c0-0.088-0.002-0.177-0.006-0.264C12.355,5.683,12.701,5.324,12.975,4.914z"/>
</g>
</svg>
